<?xml version="1.0" encoding="UTF-8" standalone="no"?>
<!-- Created with Inkscape (http://www.inkscape.org/) -->

<svg
   width="43.962212mm"
   height="43.97044mm"
   viewBox="0 0 43.962212 43.97044"
   version="1.1"
   id="svg214"
   inkscape:version="1.2 (dc2aedaf03, 2022-05-15)"
   sodipodi:docname="distro-arch.svg"
   xmlns:inkscape="http://www.inkscape.org/namespaces/inkscape"
   xmlns:sodipodi="http://sodipodi.sourceforge.net/DTD/sodipodi-0.dtd"
   xmlns="http://www.w3.org/2000/svg"
   xmlns:svg="http://www.w3.org/2000/svg">
  <sodipodi:namedview
     id="namedview216"
     pagecolor="#ffffff"
     bordercolor="#666666"
     borderopacity="1.0"
     inkscape:showpageshadow="2"
     inkscape:pageopacity="0.0"
     inkscape:pagecheckerboard="0"
     inkscape:deskcolor="#d1d1d1"
     inkscape:document-units="mm"
     showgrid="false"
     inkscape:zoom="0.66190376"
     inkscape:cx="165.43191"
     inkscape:cy="411.69127"
     inkscape:window-width="1920"
     inkscape:window-height="1017"
     inkscape:window-x="0"
     inkscape:window-y="34"
     inkscape:window-maximized="1"
     inkscape:current-layer="layer1" />
  <defs
     id="defs211" />
  <g
     inkscape:label="Layer 1"
     inkscape:groupmode="layer"
     id="layer1"
     transform="translate(-61.36579,-39.584473)">
    <path
       d="m 83.342743,39.584473 c -1.957089,4.79826 -3.13751,7.93688 -5.316472,12.59251 1.335977,1.41614 2.975825,3.06529 5.638933,4.92787 -2.863102,-1.17815 -4.816088,-2.36099 -6.275586,-3.58842 -2.788656,5.81896 -7.157677,14.10781 -16.023828,30.03848 6.968497,-4.02303 12.370352,-6.50328 17.404622,-7.44967 -0.216174,-0.92976 -0.339077,-1.93548 -0.330729,-2.98484 l 0.0083,-0.22324 c 0.110574,-4.46453 2.43302,-7.89775 5.18418,-7.66465 2.751161,0.23311 4.889608,4.04348 4.779036,8.50801 -0.0208,0.84009 -0.115554,1.64824 -0.28112,2.39779 4.979612,0.9741 10.323706,3.44799 17.197921,7.4166 -1.35546,-2.4955 -2.56533,-4.74501 -3.72071,-6.88743 -1.819905,-1.41055 -3.718158,-3.24639 -7.590232,-5.23379 2.661441,0.69155 4.567,1.48942 6.052342,2.38125 C 88.322357,51.943993 87.371098,49.037793 83.342775,39.584473 Z"
       id="path2518"
       style="fill:#1793d1;fill-opacity:1;fill-rule:evenodd;stroke:none;stroke-width:0.264583" />
  </g>
</svg>
